<?xml version="1.0"?>
<!DOCTYPE svg PUBLIC "-//W3C//DTD SVG 1.1//EN" "http://www.w3.org/Graphics/SVG/1.1/DTD/svg11.dtd">
<svg xmlns="http://www.w3.org/2000/svg" xmlns:xl="http://www.w3.org/1999/xlink" version="1.1" viewBox="103 158 185 67" width="185pt" height="67pt"><metadata xmlns:dc="http://purl.org/dc/elements/1.1/"><dc:date>2016-03-11 21:43Z</dc:date><!-- Produced by OmniGraffle Professional 5.4.4 --></metadata><defs></defs><g stroke="none" stroke-opacity="1" stroke-dasharray="none" fill="none" fill-opacity="1"><title>Canvas 1</title><rect fill="white" width="559.28998" height="782.89"/><g><title>Layer 1</title><path d="M 115 160 L 197 160 C 202.52285 160 207 164.47715 207 170 L 207 212.3622 C 207 217.88505 202.52285 222.3622 197 222.3622 L 115 222.3622 C 109.47715 222.3622 105 217.88505 105 212.3622 L 105 170 C 105 164.47715 109.47715 160 115 160 Z" fill="yellow"/><path d="M 115 160 L 197 160 C 202.52285 160 207 164.47715 207 170 L 207 212.3622 C 207 217.88505 202.52285 222.3622 197 222.3622 L 115 222.3622 C 109.47715 222.3622 105 217.88505 105 212.3622 L 105 170 C 105 164.47715 109.47715 160 115 160 Z" stroke="black" stroke-linecap="round" stroke-linejoin="round" stroke-width="1"/><rect x="201" y="160" width="34.015747" height="62.375" fill="yellow"/><rect x="201" y="160" width="34.015747" height="62.375" stroke="black" stroke-linecap="round" stroke-linejoin="round" stroke-width="1"/><path d="M 274.37008 165.6875 L 274.37008 165.6875 C 280.6322 165.6875 285.70866 170.76396 285.70866 177.02608 L 285.70866 205.34892 C 285.70866 211.61104 280.6322 216.6875 274.37008 216.6875 L 274.37008 216.6875 C 268.10795 216.6875 263.0315 211.61104 263.0315 205.34892 L 263.0315 177.02608 C 263.0315 170.76396 268.10795 165.6875 274.37008 165.6875 Z" fill="#e6e6e6"/><path d="M 274.37008 165.6875 L 274.37008 165.6875 C 280.6322 165.6875 285.70866 170.76396 285.70866 177.02608 L 285.70866 205.34892 C 285.70866 211.61104 280.6322 216.6875 274.37008 216.6875 L 274.37008 216.6875 C 268.10795 216.6875 263.0315 211.61104 263.0315 205.34892 L 263.0315 177.02608 C 263.0315 170.76396 268.10795 165.6875 274.37008 165.6875 Z" stroke="black" stroke-linecap="round" stroke-linejoin="round" stroke-width="1"/><rect x="235.01575" y="165.6875" width="34" height="51" fill="#999"/><rect x="235.01575" y="165.6875" width="34" height="51" stroke="black" stroke-linecap="round" stroke-linejoin="round" stroke-width="1"/></g><g><title>Layer 2</title><rect x="201" y="174" width="32" height="34" fill="yellow"/><rect x="201" y="174" width="32" height="34" stroke="black" stroke-linecap="round" stroke-linejoin="round" stroke-width="1"/><path d="M 134.5 180.5 L 134.5 180.5 C 137.53757 180.5 140 182.96243 140 186 L 140 196 C 140 199.03757 137.53757 201.5 134.5 201.5 L 134.5 201.5 C 131.46243 201.5 129 199.03757 129 196 L 129 186 C 129 182.96243 131.46243 180.5 134.5 180.5 Z" fill="white"/><path d="M 134.5 180.5 L 134.5 180.5 C 137.53757 180.5 140 182.96243 140 186 L 140 196 C 140 199.03757 137.53757 201.5 134.5 201.5 L 134.5 201.5 C 131.46243 201.5 129 199.03757 129 196 L 129 186 C 129 182.96243 131.46243 180.5 134.5 180.5 Z" stroke="black" stroke-linecap="round" stroke-linejoin="round" stroke-width="1"/><circle cx="192.35432" cy="168.5" r="5.5000086" fill="#333"/><circle cx="192.35432" cy="168.5" r="5.5000086" stroke="black" stroke-linecap="round" stroke-linejoin="round" stroke-width="1"/><circle cx="178.20865" cy="168.5" r="5.5000086" fill="#333"/><circle cx="178.20865" cy="168.5" r="5.5000086" stroke="black" stroke-linecap="round" stroke-linejoin="round" stroke-width="1"/><circle cx="178.20865" cy="211.5" r="5.5000086" fill="#333"/><circle cx="178.20865" cy="211.5" r="5.5000086" stroke="black" stroke-linecap="round" stroke-linejoin="round" stroke-width="1"/><circle cx="192.35432" cy="211.5" r="5.5000086" fill="#333"/><circle cx="192.35432" cy="211.5" r="5.5000086" stroke="black" stroke-linecap="round" stroke-linejoin="round" stroke-width="1"/></g><g><title>Layer 3</title><rect x="266" y="174" width="6" height="11" fill="#ff8000"/><rect x="266" y="174" width="6" height="11" stroke="black" stroke-linecap="round" stroke-linejoin="round" stroke-width="1"/><rect x="266" y="201" width="6" height="11" fill="#ff8000"/><rect x="266" y="201" width="6" height="11" stroke="black" stroke-linecap="round" stroke-linejoin="round" stroke-width="1"/></g></g></svg>
