<?xml version="1.0"?>
<!DOCTYPE svg PUBLIC "-//W3C//DTD SVG 1.1//EN" "http://www.w3.org/Graphics/SVG/1.1/DTD/svg11.dtd">
<svg xmlns="http://www.w3.org/2000/svg" xmlns:xl="http://www.w3.org/1999/xlink" version="1.1" viewBox="81 103 70 89" width="70pt" height="89pt"><metadata xmlns:dc="http://purl.org/dc/elements/1.1/"><dc:date>2016-03-10 10:20Z</dc:date><!-- Produced by OmniGraffle Professional 5.4.4 --></metadata><defs></defs><g stroke="none" stroke-opacity="1" stroke-dasharray="none" fill="none" fill-opacity="1"><title>Canvas 1</title><rect fill="white" width="559.28998" height="782.89"/><g><title>Layer 1</title><rect x="83" y="105" width="65.196854" height="85" fill="#053968"/><rect x="83" y="105" width="65.196854" height="85" stroke="black" stroke-linecap="round" stroke-linejoin="round" stroke-width="1"/><rect x="84.75" y="107.5" width="28.346458" height="21.25" fill="#3dce5c"/><rect x="84.75" y="107.5" width="28.346458" height="21.25" stroke="black" stroke-linecap="round" stroke-linejoin="round" stroke-width="1"/><ellipse cx="91.25197" cy="116" rx="4.251975" ry="4.2500067" fill="white"/><ellipse cx="91.25197" cy="116" rx="4.251975" ry="4.2500067" stroke="black" stroke-linecap="round" stroke-linejoin="round" stroke-width="1"/><ellipse cx="106.25197" cy="116" rx="4.251975" ry="4.2500067" fill="white"/><ellipse cx="106.25197" cy="116" rx="4.251975" ry="4.2500067" stroke="black" stroke-linecap="round" stroke-linejoin="round" stroke-width="1"/><rect x="118" y="107.5" width="28.346458" height="21.25" fill="#3dce5c"/><rect x="118" y="107.5" width="28.346458" height="21.25" stroke="black" stroke-linecap="round" stroke-linejoin="round" stroke-width="1"/><ellipse cx="124.50197" cy="116" rx="4.251975" ry="4.2500067" fill="white"/><ellipse cx="124.50197" cy="116" rx="4.251975" ry="4.2500067" stroke="black" stroke-linecap="round" stroke-linejoin="round" stroke-width="1"/><ellipse cx="139.50197" cy="116" rx="4.251975" ry="4.2500067" fill="white"/><ellipse cx="139.50197" cy="116" rx="4.251975" ry="4.2500067" stroke="black" stroke-linecap="round" stroke-linejoin="round" stroke-width="1"/><ellipse cx="89.00197" cy="136" rx="4.251975" ry="4.2500067" fill="white"/><ellipse cx="89.00197" cy="136" rx="4.251975" ry="4.2500067" stroke="black" stroke-linecap="round" stroke-linejoin="round" stroke-width="1"/><ellipse cx="142.0945" cy="136" rx="4.251975" ry="4.2500067" fill="white"/><ellipse cx="142.0945" cy="136" rx="4.251975" ry="4.2500067" stroke="black" stroke-linecap="round" stroke-linejoin="round" stroke-width="1"/><ellipse cx="142.0945" cy="172.75" rx="4.251975" ry="4.2500067" fill="white"/><ellipse cx="142.0945" cy="172.75" rx="4.251975" ry="4.2500067" stroke="black" stroke-linecap="round" stroke-linejoin="round" stroke-width="1"/><ellipse cx="89.00197" cy="172.75" rx="4.251975" ry="4.2500067" fill="white"/><ellipse cx="89.00197" cy="172.75" rx="4.251975" ry="4.2500067" stroke="black" stroke-linecap="round" stroke-linejoin="round" stroke-width="1"/><rect x="94.338585" y="181.25" width="42.519688" height="7.125" fill="black"/><rect x="94.338585" y="181.25" width="42.519688" height="7.125" stroke="black" stroke-linecap="round" stroke-linejoin="round" stroke-width="1"/><ellipse cx="97.92323" cy="184.8125" rx="2.8346503" ry="2.8125045" fill="#999"/><ellipse cx="97.92323" cy="184.8125" rx="2.8346503" ry="2.8125045" stroke="black" stroke-linecap="round" stroke-linejoin="round" stroke-width="1"/><ellipse cx="132.67323" cy="184.8125" rx="2.8346503" ry="2.8125045" fill="#999"/><ellipse cx="132.67323" cy="184.8125" rx="2.8346503" ry="2.8125045" stroke="black" stroke-linecap="round" stroke-linejoin="round" stroke-width="1"/><ellipse cx="104.67323" cy="184.8125" rx="2.8346503" ry="2.8125045" fill="#999"/><ellipse cx="104.67323" cy="184.8125" rx="2.8346503" ry="2.8125045" stroke="black" stroke-linecap="round" stroke-linejoin="round" stroke-width="1"/><ellipse cx="125.25788" cy="184.8125" rx="2.8346503" ry="2.8125045" fill="#999"/><ellipse cx="125.25788" cy="184.8125" rx="2.8346503" ry="2.8125045" stroke="black" stroke-linecap="round" stroke-linejoin="round" stroke-width="1"/><ellipse cx="111.465556" cy="184.8125" rx="2.8346503" ry="2.8125045" fill="#999"/><ellipse cx="111.465556" cy="184.8125" rx="2.8346503" ry="2.8125045" stroke="black" stroke-linecap="round" stroke-linejoin="round" stroke-width="1"/><ellipse cx="118.25788" cy="184.8125" rx="2.8346503" ry="2.8125045" fill="#999"/><ellipse cx="118.25788" cy="184.8125" rx="2.8346503" ry="2.8125045" stroke="black" stroke-linecap="round" stroke-linejoin="round" stroke-width="1"/><rect x="88" y="147.1875" width="8.503937" height="7.125" fill="black"/><rect x="88" y="147.1875" width="8.503937" height="7.125" stroke="black" stroke-linecap="round" stroke-linejoin="round" stroke-width="1"/><rect x="135.25" y="147.1875" width="8.503937" height="7.125" fill="black"/><rect x="135.25" y="147.1875" width="8.503937" height="7.125" stroke="black" stroke-linecap="round" stroke-linejoin="round" stroke-width="1"/><rect x="86.5" y="106.125" width="8.503937" height="1.375" fill="black"/><rect x="86.5" y="106.125" width="8.503937" height="1.375" stroke="#999" stroke-linecap="round" stroke-linejoin="round" stroke-width="1"/><rect x="101.838585" y="106.125" width="8.503937" height="1.375" fill="black"/><rect x="101.838585" y="106.125" width="8.503937" height="1.375" stroke="#999" stroke-linecap="round" stroke-linejoin="round" stroke-width="1"/><rect x="119.75" y="106.125" width="8.503937" height="1.375" fill="black"/><rect x="119.75" y="106.125" width="8.503937" height="1.375" stroke="#999" stroke-linecap="round" stroke-linejoin="round" stroke-width="1"/><rect x="134.90748" y="106.125" width="8.503937" height="1.375" fill="black"/><rect x="134.90748" y="106.125" width="8.503937" height="1.375" stroke="#999" stroke-linecap="round" stroke-linejoin="round" stroke-width="1"/></g></g></svg>
